<svg width="95" height="19" fill="none" xmlns="http://www.w3.org/2000/svg"><path d="M.805 18V.727h3.574v6.585h6.75V.728h3.586V18h-3.586v-7.71h-6.75V18H.805zm22.828-2.355c.976 0 1.726-.348 2.25-1.043.523-.696.785-1.684.785-2.965 0-1.282-.262-2.266-.785-2.953-.524-.696-1.274-1.043-2.25-1.043-.977 0-1.73.347-2.262 1.043-.523.687-.785 1.671-.785 2.953 0 1.281.262 2.27.785 2.965.531.695 1.285 1.043 2.262 1.043zm6.539-4.008c0 1.875-.54 3.48-1.617 4.816-1.078 1.328-2.715 1.992-4.91 1.992-2.196 0-3.832-.664-4.91-1.992-1.079-1.336-1.618-2.941-1.618-4.816 0-1.844.54-3.442 1.617-4.793 1.078-1.352 2.715-2.028 4.91-2.028 2.196 0 3.833.676 4.91 2.028 1.079 1.351 1.618 2.949 1.618 4.793zm9.48-6.715c1.32 0 2.399.348 3.235 1.043.843.687 1.265 1.832 1.265 3.433V18H40.73v-7.77c0-.671-.09-1.187-.27-1.546-.327-.657-.952-.985-1.874-.985-1.133 0-1.91.48-2.332 1.442-.219.507-.328 1.156-.328 1.945V18h-3.328V5.25h3.222v1.863c.43-.656.836-1.129 1.22-1.418.687-.515 1.558-.773 2.612-.773zM52.285 7.64c-.773 0-1.375.242-1.804.726-.422.485-.688 1.14-.797 1.969h5.191c-.055-.883-.324-1.55-.809-2.004-.476-.46-1.07-.691-1.78-.691zm0-2.754c1.063 0 2.02.199 2.871.597.852.399 1.555 1.028 2.11 1.887.5.758.824 1.637.972 2.637.086.586.121 1.43.106 2.531h-8.742c.046 1.281.449 2.18 1.207 2.695.46.32 1.015.48 1.664.48.687 0 1.246-.194 1.675-.585.235-.211.442-.504.621-.879h3.41c-.085.758-.48 1.527-1.183 2.309-1.094 1.242-2.625 1.863-4.594 1.863-1.625 0-3.058-.524-4.3-1.57-1.243-1.047-1.864-2.75-1.864-5.11 0-2.21.559-3.906 1.676-5.086 1.125-1.18 2.582-1.77 4.371-1.77zm10.922 9.035c.07.594.223 1.015.457 1.265.414.446 1.18.668 2.297.668.656 0 1.176-.097 1.558-.293.391-.195.587-.488.587-.878a.948.948 0 00-.47-.856c-.312-.195-1.472-.531-3.48-1.008-1.445-.36-2.465-.808-3.058-1.347-.594-.532-.891-1.297-.891-2.297 0-1.18.461-2.192 1.383-3.035.93-.852 2.234-1.278 3.914-1.278 1.594 0 2.89.32 3.89.961 1.008.633 1.587 1.73 1.735 3.293h-3.34c-.047-.43-.168-.77-.363-1.02-.367-.452-.992-.679-1.875-.679-.727 0-1.246.113-1.559.34-.304.226-.457.492-.457.797 0 .383.164.66.492.832.329.18 1.489.488 3.48.925 1.329.313 2.325.786 2.99 1.418.655.641.984 1.442.984 2.403 0 1.265-.473 2.3-1.418 3.105-.938.797-2.391 1.196-4.36 1.196-2.008 0-3.492-.422-4.453-1.266-.953-.852-1.43-1.934-1.43-3.246h3.387zm9.445-6.2V5.345h1.782V1.78h3.304v3.563h2.075v2.379h-2.075v6.75c0 .523.067.851.2.984.132.125.539.188 1.218.188h.317l.34-.024v2.496l-1.582.059c-1.579.055-2.657-.219-3.235-.82-.375-.383-.562-.973-.562-1.77V7.723h-1.782zm15.035 7.923c.977 0 1.727-.348 2.25-1.043.524-.696.786-1.684.786-2.965 0-1.282-.262-2.266-.785-2.953-.524-.696-1.274-1.043-2.25-1.043-.977 0-1.731.347-2.262 1.043-.524.687-.785 1.671-.785 2.953 0 1.281.261 2.27.785 2.965.531.695 1.285 1.043 2.261 1.043zm6.54-4.008c0 1.875-.54 3.48-1.618 4.816-1.078 1.328-2.715 1.992-4.91 1.992-2.195 0-3.832-.664-4.91-1.992-1.078-1.336-1.617-2.941-1.617-4.816 0-1.844.539-3.442 1.617-4.793 1.078-1.352 2.715-2.028 4.91-2.028 2.195 0 3.832.676 4.91 2.028 1.079 1.351 1.618 2.949 1.618 4.793z" fill="#031323"/></svg>