<svg width="98" height="16" fill="none" xmlns="http://www.w3.org/2000/svg"><path fill-rule="evenodd" clip-rule="evenodd" d="M95.985 5.825h-8.061v7.986h8.06V5.825zM85.909 3.828v11.98h12.09V3.828H85.91z" fill="#fff"/><path d="M.292 1.042h11.143c.532 0 .987-.051 1.364-.154.39-.116.662-.238.818-.367.169-.129.33-.244.487-.347.156-.116.292-.174.409-.174.26 0 .39.16.39.483v5.925l.623-.521c.52-.425.928-.747 1.227-.965a5.211 5.211 0 011.11-.599c.442-.193.884-.29 1.325-.29.792 0 1.416.271 1.87.811.468.54.701 1.236.701 2.085v6.89c0 .566.104.959.312 1.177.208.206.578.31 1.11.31.234 0 .351.09.351.27 0 .154-.097.231-.292.231h-5.28c-.194 0-.291-.077-.291-.232 0-.18.116-.27.35-.27.416 0 .721-.122.916-.367.195-.244.338-.733.428-1.466.104-.747.156-1.879.156-3.397 0-1.3-.071-2.303-.214-3.011-.13-.708-.299-1.165-.506-1.37-.208-.206-.494-.31-.858-.31-.116 0-.24.014-.37.04a1.087 1.087 0 00-.39.135c-.142.077-.266.141-.37.193-.09.038-.233.128-.428.27-.182.141-.318.25-.41.328-.09.064-.265.2-.525.405-.26.206-.442.348-.546.425v3.339c0 1.75.033 2.85.098 3.3.078.618.195 1.023.35 1.216.17.18.526.27 1.072.27.234 0 .35.09.35.27 0 .155-.097.232-.292.232h-5.396c-.194 0-.292-.077-.292-.232 0-.18.117-.27.35-.27.546 0 .916-.103 1.111-.309.208-.206.338-.598.39-1.177.078-1.08.117-2.18.117-3.3V4.323c0-1.042-.078-1.717-.234-2.026-.143-.322-.487-.483-1.033-.483h-4.09V9.13c0 2.316.038 3.834.116 4.555.065.579.26.99.585 1.235.337.245.863.367 1.578.367.246 0 .37.096.37.29 0 .154-.098.231-.292.231H2.786c-.195 0-.293-.077-.293-.232 0-.193.117-.29.351-.29.753 0 1.286-.121 1.598-.366.311-.244.493-.656.545-1.235.078-1.08.117-2.606.117-4.574V1.814H3.312c-.819 0-1.487.296-2.007.888-.52.592-.779 1.222-.779 1.891 0 .168-.097.251-.292.251-.156 0-.234-.077-.234-.231V1.35c0-.129.02-.212.058-.25a.39.39 0 01.234-.059zM33.045 12.7c0 .746-.357 1.486-1.071 2.22-.714.72-1.74 1.08-3.078 1.08-1.506 0-2.708-.476-3.604-1.428-.896-.965-1.344-2.368-1.344-4.208 0-1.865.461-3.384 1.383-4.555.922-1.183 2.247-1.775 3.974-1.775.442 0 .864.064 1.266.193.416.128.812.328 1.189.598.39.27.701.663.935 1.177.234.515.35 1.113.35 1.795 0 .348-.09.592-.272.734-.182.141-.487.212-.916.212h-5.63c0 1.814.312 3.23.935 4.246.624 1.017 1.474 1.525 2.552 1.525.702 0 1.28-.135 1.734-.405.468-.284.877-.779 1.227-1.487.052-.102.124-.154.215-.154.103 0 .155.077.155.232zm-4.13-8.049c-.766 0-1.37.341-1.811 1.023-.429.67-.708 1.525-.838 2.567l3.585-.25c.298-.014.5-.078.604-.194.103-.115.155-.29.155-.52 0-1.75-.564-2.626-1.694-2.626zM38.851 16c-1.545 0-2.746-.476-3.603-1.428-.845-.965-1.267-2.33-1.267-4.092 0-2.136.5-3.744 1.5-4.825 1.013-1.08 2.357-1.621 4.033-1.621 1.532 0 2.727.502 3.584 1.505.87.991 1.305 2.368 1.305 4.13 0 2.123-.506 3.713-1.52 4.768-1 1.042-2.343 1.563-4.032 1.563zm.526-.675c.961 0 1.637-.432 2.026-1.294.403-.875.604-2.103.604-3.686 0-1.698-.24-3.062-.72-4.092-.468-1.042-1.195-1.563-2.182-1.563-.948 0-1.643.463-2.085 1.39-.441.913-.662 2.148-.662 3.705 0 1.673.247 3.018.74 4.034.507 1.004 1.266 1.505 2.28 1.505zM49.005 7.315c.507-2.188 1.468-3.281 2.883-3.281.52 0 .929.128 1.227.386.3.257.448.65.448 1.177 0 .515-.188.881-.564 1.1a2.331 2.331 0 01-1.189.328c0-.823-.285-1.235-.857-1.235-.545 0-1.02.418-1.422 1.255-.39.823-.584 1.801-.584 2.933 0 1.75.039 2.985.117 3.706.078.592.272 1.01.584 1.255.312.244.857.366 1.636.366.234 0 .351.09.351.27 0 .155-.097.232-.292.232h-6.078c-.195 0-.292-.077-.292-.232 0-.18.117-.27.35-.27.494 0 .851-.122 1.072-.367.233-.257.376-.675.428-1.254.078-1.08.117-2.136.117-3.165v-.83c0-.566-.006-1.03-.02-1.39a7.805 7.805 0 00-.136-1.177c-.065-.425-.155-.753-.272-.984a1.515 1.515 0 00-.507-.599 1.284 1.284 0 00-.799-.25h-.467c-.195 0-.292-.071-.292-.213 0-.129.097-.219.292-.27.364-.103.974-.219 1.831-.348.857-.128 1.377-.193 1.559-.193.584 0 .876 1.017.876 3.05zM62.46 12.7c0 .746-.357 1.486-1.072 2.22-.714.72-1.74 1.08-3.077 1.08-1.507 0-2.708-.476-3.604-1.428-.896-.965-1.344-2.368-1.344-4.208 0-1.865.46-3.384 1.383-4.555.922-1.183 2.246-1.775 3.974-1.775.441 0 .863.064 1.266.193.416.128.812.328 1.188.598.39.27.702.663.935 1.177.234.515.35 1.113.35 1.795 0 .348-.09.592-.272.734-.182.141-.487.212-.915.212h-5.63c0 1.814.311 3.23.935 4.246.623 1.017 1.474 1.525 2.552 1.525.701 0 1.279-.135 1.733-.405.468-.284.877-.779 1.228-1.487.052-.102.123-.154.214-.154.104 0 .156.077.156.232zM58.33 4.65c-.766 0-1.37.341-1.812 1.023-.428.67-.707 1.525-.837 2.567l3.584-.25c.299-.014.5-.078.604-.194.104-.115.156-.29.156-.52 0-1.75-.565-2.626-1.695-2.626zM73.506 6.427l.662-.54c.117-.09.312-.251.585-.483.272-.231.46-.386.565-.463.104-.077.266-.193.487-.348.233-.154.422-.257.565-.308.155-.065.337-.123.545-.174.22-.051.448-.077.682-.077.792 0 1.403.27 1.831.81.442.528.662 1.223.662 2.085v6.89c0 .566.104.959.312 1.177.208.206.578.31 1.11.31.234 0 .351.09.351.27 0 .154-.097.231-.292.231h-5.28c-.194 0-.291-.077-.291-.232 0-.18.116-.27.35-.27.416 0 .72-.122.916-.367.194-.244.337-.733.428-1.466.104-.747.156-1.879.156-3.397 0-1.3-.065-2.297-.195-2.992-.13-.695-.292-1.138-.487-1.331-.181-.193-.441-.29-.779-.29-.13 0-.266.02-.409.058a2.033 2.033 0 00-.37.135 4.627 4.627 0 00-.877.598c-.104.078-.292.225-.565.444-.272.206-.48.367-.623.483v6.64c0 .565.104.958.312 1.176.207.206.578.31 1.11.31.234 0 .35.09.35.27 0 .154-.097.231-.291.231h-5.28c-.194 0-.292-.077-.292-.232 0-.18.117-.27.35-.27.416 0 .721-.122.916-.367.195-.244.338-.733.429-1.466.104-.747.156-1.879.156-3.397 0-1.3-.065-2.297-.195-2.992-.13-.695-.292-1.138-.487-1.331-.182-.193-.442-.29-.78-.29-.13 0-.266.02-.408.058a2.033 2.033 0 00-.37.135 4.628 4.628 0 00-.877.598c-.104.078-.292.225-.565.444-.273.206-.48.367-.623.483-.013.424-.02 1.26-.02 2.509v.83c0 1.595.04 2.663.117 3.204.052.36.09.61.117.752.026.142.084.296.175.463.104.155.24.258.41.31.168.038.402.057.7.057.247 0 .37.09.37.27 0 .155-.097.232-.291.232H63.22c-.194 0-.292-.077-.292-.232 0-.18.117-.27.35-.27.767-.013 1.228-.296 1.384-.849.156-.566.234-1.879.234-3.937v-.927c0-.502-.007-.888-.02-1.158 0-.283-.013-.617-.039-1.003-.013-.4-.052-.702-.117-.907a4.597 4.597 0 00-.214-.637c-.09-.22-.208-.374-.35-.464a.967.967 0 00-.527-.135h-.545c-.169 0-.253-.064-.253-.193 0-.167.467-.347 1.402-.54.948-.193 1.643-.29 2.085-.29.493 0 .74.316.74.946 0 .502-.007.888-.02 1.158l.585-.482c.065-.052.227-.187.487-.406.273-.231.442-.373.507-.424.064-.052.2-.155.408-.31.221-.166.384-.27.488-.308.116-.051.266-.116.448-.193a1.8 1.8 0 01.526-.174c.181-.025.37-.038.565-.038.7 0 1.26.219 1.675.656.428.437.688 1.016.779 1.737z" fill="#fff"/></svg>