<svg width="77" height="78" viewBox="0 0 77 78" fill="none" xmlns="http://www.w3.org/2000/svg">
<mask id="mask0" mask-type="alpha" maskUnits="userSpaceOnUse" x="4" y="4" width="69" height="70">
<path d="M4 73.1083C4 73.6008 4.3999 74 4.8932 74H23.9054C24.3987 74 24.7986 73.6008 24.7986 73.1083V47.2447C24.7986 46.7522 25.1985 46.3529 25.6918 46.3529H51.3082C51.8015 46.3529 52.2014 46.7522 52.2014 47.2447V73.1083C52.2014 73.6008 52.6013 74 53.0946 74H72.1068C72.6001 74 73 73.6008 73 73.1083V4.89172C73 4.39924 72.6001 4 72.1068 4H53.0946C52.6013 4 52.2014 4.39924 52.2014 4.89172V29.873C52.2014 30.3655 51.8015 30.7647 51.3082 30.7647H25.6918C25.1985 30.7647 24.7986 30.3655 24.7986 29.873V4.89172C24.7986 4.39924 24.3987 4 23.9054 4H4.8932C4.3999 4 4 4.39924 4 4.89172V73.1083Z" fill="url(#paint0_radial)"/>
</mask>
<g mask="url(#mask0)">
<g style="mix-blend-mode:multiply">
<ellipse cx="11.5921" cy="66.197" rx="71.9029" ry="71.7834" fill="url(#paint1_linear)"/>
</g>
<g style="mix-blend-mode:multiply">
<ellipse cx="43.0777" cy="26.9616" rx="58.2816" ry="58.1847" fill="url(#paint2_linear)"/>
</g>
<g style="mix-blend-mode:multiply">
<ellipse cx="69.8737" cy="43.4586" rx="48.6796" ry="48.5987" fill="url(#paint3_linear)"/>
</g>
<g style="mix-blend-mode:multiply">
<ellipse cx="72.9999" cy="66.1976" rx="39.301" ry="39.2357" fill="url(#paint4_linear)"/>
</g>
<g style="mix-blend-mode:multiply">
<ellipse cx="2.69824" cy="66.2432" rx="29.0671" ry="29.0371" fill="url(#paint5_linear)"/>
</g>
</g>
<defs>
<radialGradient id="paint0_radial" cx="0" cy="0" r="1" gradientUnits="userSpaceOnUse" gradientTransform="translate(38.5 39) rotate(90) scale(32.8538 32.3844)">
<stop stop-color="white"/>
<stop offset="1" stop-color="#F2F3F4"/>
</radialGradient>
<linearGradient id="paint1_linear" x1="11.5921" y1="-5.58643" x2="11.5921" y2="137.98" gradientUnits="userSpaceOnUse">
<stop stop-color="#D5B0F2"/>
<stop offset="1" stop-color="#D5B0F2" stop-opacity="0"/>
</linearGradient>
<linearGradient id="paint2_linear" x1="43.0777" y1="-31.2231" x2="43.0777" y2="85.1463" gradientUnits="userSpaceOnUse">
<stop stop-color="#1DDEBB"/>
<stop offset="1" stop-color="#1DDEBB" stop-opacity="0"/>
</linearGradient>
<linearGradient id="paint3_linear" x1="69.8737" y1="-5.14014" x2="69.8737" y2="92.0573" gradientUnits="userSpaceOnUse">
<stop stop-color="#D5B0F2"/>
<stop offset="1" stop-color="#D5B0F2" stop-opacity="0"/>
</linearGradient>
<linearGradient id="paint4_linear" x1="72.9999" y1="26.9619" x2="72.9999" y2="105.433" gradientUnits="userSpaceOnUse">
<stop stop-color="#D5B0F2"/>
<stop offset="1" stop-color="#D5B0F2" stop-opacity="0"/>
</linearGradient>
<linearGradient id="paint5_linear" x1="2.69824" y1="37.2061" x2="2.69824" y2="95.2803" gradientUnits="userSpaceOnUse">
<stop stop-color="#AB61E5"/>
<stop offset="1" stop-color="#AB61E5" stop-opacity="0"/>
</linearGradient>
</defs>
</svg>
